<svg width="16" height="16" viewBox="0 0 16 16" fill="none" xmlns="http://www.w3.org/2000/svg">
<path fill-rule="evenodd" clip-rule="evenodd" d="M2.20708 15.2071C1.81655 15.5976 1.18339 15.5976 0.792863 15.2071C0.402338 14.8166 0.402338 14.1834 0.792863 13.7929L6.58575 8L0.792863 2.20711C0.402338 1.81658 0.402338 1.18342 0.792863 0.792896C1.18339 0.402371 1.81655 0.402371 2.20708 0.792896L7.99997 6.58579L13.7929 0.792894C14.1834 0.402369 14.8166 0.402369 15.2071 0.792894C15.5976 1.18342 15.5976 1.81658 15.2071 2.20711L9.41418 8L15.2071 13.7929C15.5976 14.1834 15.5976 14.8166 15.2071 15.2071C14.8166 15.5976 14.1834 15.5976 13.7929 15.2071L7.99997 9.41421L2.20708 15.2071Z" fill="white"/>
</svg>
